<?xml version="1.0" standalone="no"?>
<!DOCTYPE svg PUBLIC "-//W3C//DTD SVG 20010904//EN"
 "http://www.w3.org/TR/2001/REC-SVG-20010904/DTD/svg10.dtd">
<svg version="1.0" xmlns="http://www.w3.org/2000/svg"
 width="300.000000pt" height="300.000000pt" viewBox="0 0 300.000000 300.000000"
 preserveAspectRatio="xMidYMid meet">
<metadata>
Created by potrace 1.14, written by Peter Selinger 2001-2017
</metadata>
<g transform="translate(0.000000,300.000000) scale(0.100000,-0.100000)"
fill="#000000" stroke="none">
<path d="M0 1500 l0 -1500 1500 0 1500 0 0 1500 0 1500 -1500 0 -1500 0 0
-1500z m1240 785 c264 -132 478 -244 477 -250 -2 -5 -71 -51 -154 -102 l-150
-93 -166 80 c-91 44 -168 80 -171 80 -3 0 -6 -49 -6 -110 l0 -109 63 -34 c34
-19 140 -75 235 -124 l173 -90 -63 -40 c-35 -22 -107 -68 -161 -101 l-97 -61
-73 34 c-39 18 -72 33 -73 32 -4 -6 -14 -367 -14 -533 l0 -202 -152 -94 c-84
-53 -156 -93 -160 -91 -12 7 -10 2055 2 2051 6 -2 227 -111 490 -243z m1001
-506 c188 -93 338 -173 335 -176 -3 -3 -306 -192 -673 -419 l-668 -413 -6 62
c-4 34 -7 119 -8 188 l-1 126 345 214 c190 117 345 216 345 219 0 3 -72 41
-160 85 -88 44 -159 84 -157 89 3 8 294 195 305 196 1 0 156 -77 343 -171z"/>
</g>
</svg>
